<?xml version="1.0" standalone="no"?>
<!DOCTYPE svg PUBLIC "-//W3C//DTD SVG 20010904//EN"
 "http://www.w3.org/TR/2001/REC-SVG-20010904/DTD/svg10.dtd">
<svg version="1.0" xmlns="http://www.w3.org/2000/svg"
 width="169.000000pt" height="222.000000pt" viewBox="0 0 169.000000 222.000000"
 preserveAspectRatio="xMidYMid meet">

<g transform="translate(0.000000,222.000000) scale(0.100000,-0.100000)"
fill="#000000" stroke="none">
<path d="M80 1405 l0 -755 755 0 755 0 0 755 0 755 -755 0 -755 0 0 -755z
m695 625 c27 -27 54 -50 59 -50 6 0 34 24 63 52 l53 52 32 -32 32 -32 -52 -53
c-28 -29 -52 -57 -52 -62 0 -5 24 -33 52 -62 l52 -53 -31 -31 -31 -32 -55 52
c-29 28 -58 51 -63 51 -4 0 -32 -23 -60 -51 l-51 -51 -32 34 -31 33 55 55 55
55 -57 57 -57 58 29 30 c16 16 31 30 35 30 3 0 28 -22 55 -50z m-165 -516 c6
-256 8 -260 130 -287 111 -25 249 2 284 55 26 39 39 170 32 316 l-7 132 63 0
63 0 0 -247 c0 -137 3 -267 8 -290 l7 -42 -54 -15 c-30 -9 -59 -16 -65 -16 -7
0 -11 22 -11 54 0 30 -4 57 -8 60 -5 3 -21 -8 -36 -23 -16 -16 -56 -42 -89
-57 -55 -25 -74 -29 -162 -29 -84 0 -108 4 -153 24 -61 28 -98 67 -111 119 -5
20 -11 133 -13 250 l-3 213 60 -3 60 -3 5 -211z m165 96 c27 -27 54 -50 59
-50 6 0 34 24 63 52 l53 52 32 -32 32 -32 -52 -53 c-28 -29 -52 -57 -52 -62 0
-5 24 -33 52 -62 l52 -53 -31 -32 -31 -31 -59 56 -59 56 -49 -49 c-27 -28 -55
-50 -62 -50 -7 0 -24 12 -38 27 l-25 28 55 55 55 56 -57 57 -57 57 29 30 c16
16 31 30 35 30 3 0 28 -22 55 -50z m119 -584 l56 59 32 -33 32 -32 -52 -53
c-28 -29 -52 -57 -52 -62 0 -5 24 -33 52 -62 l52 -53 -31 -32 -32 -32 -55 52
c-30 29 -58 52 -63 52 -4 0 -30 -23 -56 -50 -27 -28 -52 -50 -56 -50 -4 0 -20
14 -36 30 l-29 31 57 57 57 57 -55 55 -55 56 32 32 31 33 58 -57 58 -57 55 59z"/>
<path d="M1166 458 c-8 -13 -39 -97 -70 -188 -54 -157 -66 -180 -93 -180 -7 0
-13 -3 -13 -7 0 -5 29 -8 65 -8 65 0 84 8 44 18 -19 5 -21 11 -16 44 3 21 10
50 16 66 10 26 14 27 80 27 l69 0 22 -59 c22 -60 21 -81 -6 -81 -8 0 -14 -4
-14 -8 0 -4 31 -8 70 -7 74 0 84 5 48 22 -18 8 -40 55 -96 197 -41 102 -78
186 -83 186 -5 0 -15 -10 -23 -22z m63 -195 c1 -9 -16 -13 -54 -13 -30 0 -55
3 -55 8 0 10 25 90 40 127 l12 30 28 -70 c16 -38 29 -76 29 -82z"/>
<path d="M284 458 c-3 -4 3 -8 13 -8 38 0 43 -19 43 -166 0 -138 1 -143 26
-173 63 -75 236 -64 279 19 11 21 15 62 15 155 0 133 8 165 40 165 11 0 20 4
20 8 0 6 -73 8 -130 2 -3 0 6 -6 20 -13 24 -12 25 -15 28 -137 2 -136 -4 -159
-51 -194 -21 -15 -43 -21 -83 -21 -45 0 -58 4 -81 28 -27 27 -28 30 -31 163
-4 143 2 164 41 164 11 0 17 3 13 8 -10 10 -156 10 -162 0z"/>
<path d="M741 341 c10 -14 41 -81 70 -149 28 -68 55 -120 59 -115 4 4 31 68
60 140 28 73 58 136 65 140 8 5 -6 8 -32 9 -31 1 -40 -2 -29 -8 9 -5 16 -16
16 -24 0 -21 -50 -165 -63 -182 -13 -17 -19 -6 -63 105 -27 68 -30 85 -20 96
11 11 5 13 -34 13 l-48 0 19 -25z"/>
</g>
</svg>
